
<svg version="1.1" class="highcharts-root" style="font-family:&quot;lucida grande&quot;, &quot;lucida sans unicode&quot;, arial, helvetica, sans-serif;font-size:12px;" xmlns="http://www.w3.org/2000/svg" viewBox="0 0 584 400">
	<desc>Created with Highcharts 6.2.0-modified
	</desc>
	<defs>
		<clipPath id="highcharts-buxmjbh-1">
			<rect x="0" y="0" width="502" height="299" fill="none">
			</rect>
		</clipPath>
	</defs>
	<rect fill="#ffffff" class="highcharts-background" x="0" y="0" width="584" height="400" rx="0" ry="0">
	</rect>
	<rect fill="none" class="highcharts-plot-background" x="72" y="63" width="502" height="299">
	</rect>
	<g class="highcharts-pane-group" data-z-index="0">
	</g>
	<g class="highcharts-grid highcharts-xaxis-grid " data-z-index="1">
		<path fill="none" data-z-index="1" class="highcharts-grid-line" d="M 113.5 63 L 113.5 362" opacity="1">
		</path>
		<path fill="none" data-z-index="1" class="highcharts-grid-line" d="M 155.5 63 L 155.5 362" opacity="1">
		</path>
		<path fill="none" data-z-index="1" class="highcharts-grid-line" d="M 197.5 63 L 197.5 362" opacity="1">
		</path>
		<path fill="none" data-z-index="1" class="highcharts-grid-line" d="M 238.5 63 L 238.5 362" opacity="1">
		</path>
		<path fill="none" data-z-index="1" class="highcharts-grid-line" d="M 280.5 63 L 280.5 362" opacity="1">
		</path>
		<path fill="none" data-z-index="1" class="highcharts-grid-line" d="M 322.5 63 L 322.5 362" opacity="1">
		</path>
		<path fill="none" data-z-index="1" class="highcharts-grid-line" d="M 364.5 63 L 364.5 362" opacity="1">
		</path>
		<path fill="none" data-z-index="1" class="highcharts-grid-line" d="M 406.5 63 L 406.5 362" opacity="1">
		</path>
		<path fill="none" data-z-index="1" class="highcharts-grid-line" d="M 448.5 63 L 448.5 362" opacity="1">
		</path>
		<path fill="none" data-z-index="1" class="highcharts-grid-line" d="M 489.5 63 L 489.5 362" opacity="1">
		</path>
		<path fill="none" data-z-index="1" class="highcharts-grid-line" d="M 531.5 63 L 531.5 362" opacity="1">
		</path>
		<path fill="none" data-z-index="1" class="highcharts-grid-line" d="M 573.5 63 L 573.5 362" opacity="1">
		</path>
		<path fill="none" data-z-index="1" class="highcharts-grid-line" d="M 71.5 63 L 71.5 362" opacity="1">
		</path>
	</g>
	<g class="highcharts-grid highcharts-yaxis-grid " data-z-index="1">
		<path fill="none" stroke="#e6e6e6" stroke-width="1" data-z-index="1" class="highcharts-grid-line" d="M 72 362.5 L 574 362.5" opacity="1">
		</path>
		<path fill="none" stroke="#e6e6e6" stroke-width="1" data-z-index="1" class="highcharts-grid-line" d="M 72 302.5 L 574 302.5" opacity="1">
		</path>
		<path fill="none" stroke="#e6e6e6" stroke-width="1" data-z-index="1" class="highcharts-grid-line" d="M 72 242.5 L 574 242.5" opacity="1">
		</path>
		<path fill="none" stroke="#e6e6e6" stroke-width="1" data-z-index="1" class="highcharts-grid-line" d="M 72 183.5 L 574 183.5" opacity="1">
		</path>
		<path fill="none" stroke="#e6e6e6" stroke-width="1" data-z-index="1" class="highcharts-grid-line" d="M 72 123.5 L 574 123.5" opacity="1">
		</path>
		<path fill="none" stroke="#e6e6e6" stroke-width="1" data-z-index="1" class="highcharts-grid-line" d="M 72 62.5 L 574 62.5" opacity="1">
		</path>
	</g>
	<rect fill="none" class="highcharts-plot-border" data-z-index="1" x="72" y="63" width="502" height="299">
	</rect>
	<g class="highcharts-axis highcharts-xaxis " data-z-index="2">
		<path fill="none" class="highcharts-tick" stroke="#ccd6eb" stroke-width="1" d="M 113.5 362 L 113.5 372" opacity="1">
		</path>
		<path fill="none" class="highcharts-tick" stroke="#ccd6eb" stroke-width="1" d="M 155.5 362 L 155.5 372" opacity="1">
		</path>
		<path fill="none" class="highcharts-tick" stroke="#ccd6eb" stroke-width="1" d="M 197.5 362 L 197.5 372" opacity="1">
		</path>
		<path fill="none" class="highcharts-tick" stroke="#ccd6eb" stroke-width="1" d="M 238.5 362 L 238.5 372" opacity="1">
		</path>
		<path fill="none" class="highcharts-tick" stroke="#ccd6eb" stroke-width="1" d="M 280.5 362 L 280.5 372" opacity="1">
		</path>
		<path fill="none" class="highcharts-tick" stroke="#ccd6eb" stroke-width="1" d="M 322.5 362 L 322.5 372" opacity="1">
		</path>
		<path fill="none" class="highcharts-tick" stroke="#ccd6eb" stroke-width="1" d="M 364.5 362 L 364.5 372" opacity="1">
		</path>
		<path fill="none" class="highcharts-tick" stroke="#ccd6eb" stroke-width="1" d="M 406.5 362 L 406.5 372" opacity="1">
		</path>
		<path fill="none" class="highcharts-tick" stroke="#ccd6eb" stroke-width="1" d="M 448.5 362 L 448.5 372" opacity="1">
		</path>
		<path fill="none" class="highcharts-tick" stroke="#ccd6eb" stroke-width="1" d="M 489.5 362 L 489.5 372" opacity="1">
		</path>
		<path fill="none" class="highcharts-tick" stroke="#ccd6eb" stroke-width="1" d="M 531.5 362 L 531.5 372" opacity="1">
		</path>
		<path fill="none" class="highcharts-tick" stroke="#ccd6eb" stroke-width="1" d="M 574.5 362 L 574.5 372" opacity="1">
		</path>
		<path fill="none" class="highcharts-tick" stroke="#ccd6eb" stroke-width="1" d="M 71.5 362 L 71.5 372" opacity="1">
		</path>
		<path fill="none" class="highcharts-axis-line" stroke="#ccd6eb" stroke-width="1" data-z-index="7" d="M 72 362.5 L 574 362.5">
		</path>
	</g>
	<g class="highcharts-axis highcharts-yaxis " data-z-index="2">
		<text x="26" data-z-index="7" text-anchor="middle" transform="translate(0,0) rotate(270 26 212.5)" class="highcharts-axis-title" style="color:#666666;fill:#666666;" y="212.5">
			<tspan>Values
			</tspan>
		</text>
		<path fill="none" class="highcharts-axis-line" data-z-index="7" d="M 72 63 L 72 362">
		</path>
	</g>
	<g class="highcharts-series-group" data-z-index="3">
		<g data-z-index="0.1" class="highcharts-series highcharts-series-0 highcharts-column-series highcharts-tracker" transform="translate(72,63) scale(1 1)" clip-path="url(#highcharts-buxmjbh-1)">
			<rect x="10.5" y="263.5" width="21" height="36" fill="#7cb5ec" stroke="#ffffff" stroke-width="1" class="highcharts-point highcharts-color-0">
			</rect>
			<rect x="52.5" y="213.5" width="21" height="86" fill="#434348" stroke="#ffffff" stroke-width="1" class="highcharts-point highcharts-color-1">
			</rect>
			<rect x="94.5" y="172.5" width="21" height="127" fill="#90ed7d" stroke="#ffffff" stroke-width="1" class="highcharts-point highcharts-color-2">
			</rect>
			<rect x="135.5" y="144.5" width="21" height="155" fill="#f7a35c" stroke="#ffffff" stroke-width="1" class="highcharts-point highcharts-color-3">
			</rect>
			<rect x="177.5" y="127.5" width="21" height="172" fill="#8085e9" stroke="#ffffff" stroke-width="1" class="highcharts-point highcharts-color-4">
			</rect>
			<rect x="219.5" y="89.5" width="21" height="210" fill="#f15c80" stroke="#ffffff" stroke-width="1" class="highcharts-point highcharts-color-5">
			</rect>
			<rect x="261.5" y="137.5" width="21" height="162" fill="#e4d354" stroke="#ffffff" stroke-width="1" class="highcharts-point highcharts-color-6">
			</rect>
			<rect x="303.5" y="121.5" width="21" height="178" fill="#2b908f" stroke="#ffffff" stroke-width="1" class="highcharts-point highcharts-color-7">
			</rect>
			<rect x="345.5" y="40.5" width="21" height="259" fill="#f45b5b" stroke="#ffffff" stroke-width="1" class="highcharts-point highcharts-color-8">
			</rect>
			<rect x="386.5" y="67.5" width="21" height="232" fill="#91e8e1" stroke="#ffffff" stroke-width="1" class="highcharts-point highcharts-color-9">
			</rect>
			<rect x="428.5" y="185.5" width="21" height="114" fill="#7cb5ec" stroke="#ffffff" stroke-width="1" class="highcharts-point highcharts-color-0">
			</rect>
			<rect x="470.5" y="234.5" width="21" height="65" fill="#434348" stroke="#ffffff" stroke-width="1" class="highcharts-point highcharts-color-1">
			</rect>
		</g>
		<g data-z-index="0.1" class="highcharts-markers highcharts-series-0 highcharts-column-series " transform="translate(72,63) scale(1 1)" clip-path="none">
		</g>
	</g>
	<g class="highcharts-exporting-group" data-z-index="3">
		<g class="highcharts-button highcharts-contextbutton" stroke-linecap="round" transform="translate(550,10)">
			<title>Chart context menu
			</title>
			<rect fill="#ffffff" class=" highcharts-button-box" x="0.5" y="0.5" width="24" height="22" rx="2" ry="2" stroke="none" stroke-width="1">
			</rect>
			<path fill="#666666" d="M 6 6.5 L 20 6.5 M 6 11.5 L 20 11.5 M 6 16.5 L 20 16.5" class="highcharts-button-symbol" data-z-index="1" stroke="#666666" stroke-width="3">
			</path>
			<text x="0" data-z-index="1" style="font-weight:normal;color:#333333;cursor:pointer;fill:#333333;" y="12">
			</text>
		</g>
	</g>
	<text x="292" text-anchor="middle" class="highcharts-title" data-z-index="4" style="color:#333333;font-size:18px;fill:#333333;" y="24">
		<tspan>Chart.update
		</tspan>
	</text>
	<text x="292" text-anchor="middle" class="highcharts-subtitle" data-z-index="4" style="color:#666666;fill:#666666;" y="46">
		<tspan>Plain
		</tspan>
	</text>
	<g class="highcharts-legend" data-z-index="7">
		<rect fill="none" class="highcharts-legend-box" rx="0" ry="0" x="0" y="0" width="8" height="8" visibility="hidden">
		</rect>
		<g data-z-index="1">
			<g>
			</g>
		</g>
	</g>
	<g class="highcharts-axis-labels highcharts-xaxis-labels " data-z-index="7">
		<text x="92.9" style="color:#666666;cursor:default;font-size:11px;fill:#666666;" text-anchor="middle" transform="translate(0,0)" y="381" opacity="1">Jan
		</text>
		<text x="134.7" style="color:#666666;cursor:default;font-size:11px;fill:#666666;" text-anchor="middle" transform="translate(0,0)" y="381" opacity="1">Feb
		</text>
		<text x="176.5" style="color:#666666;cursor:default;font-size:11px;fill:#666666;" text-anchor="middle" transform="translate(0,0)" y="381" opacity="1">Mar
		</text>
		<text x="218.4" style="color:#666666;cursor:default;font-size:11px;fill:#666666;" text-anchor="middle" transform="translate(0,0)" y="381" opacity="1">Apr
		</text>
		<text x="260.2" style="color:#666666;cursor:default;font-size:11px;fill:#666666;" text-anchor="middle" transform="translate(0,0)" y="381" opacity="1">May
		</text>
		<text x="302.0" style="color:#666666;cursor:default;font-size:11px;fill:#666666;" text-anchor="middle" transform="translate(0,0)" y="381" opacity="1">Jun
		</text>
		<text x="343.9" style="color:#666666;cursor:default;font-size:11px;fill:#666666;" text-anchor="middle" transform="translate(0,0)" y="381" opacity="1">Jul
		</text>
		<text x="385.7" style="color:#666666;cursor:default;font-size:11px;fill:#666666;" text-anchor="middle" transform="translate(0,0)" y="381" opacity="1">Aug
		</text>
		<text x="427.5" style="color:#666666;cursor:default;font-size:11px;fill:#666666;" text-anchor="middle" transform="translate(0,0)" y="381" opacity="1">Sep
		</text>
		<text x="469.4" style="color:#666666;cursor:default;font-size:11px;fill:#666666;" text-anchor="middle" transform="translate(0,0)" y="381" opacity="1">Oct
		</text>
		<text x="511.2" style="color:#666666;cursor:default;font-size:11px;fill:#666666;" text-anchor="middle" transform="translate(0,0)" y="381" opacity="1">Nov
		</text>
		<text x="553.0" style="color:#666666;cursor:default;font-size:11px;fill:#666666;" text-anchor="middle" transform="translate(0,0)" y="381" opacity="1">Dec
		</text>
	</g>
	<g class="highcharts-axis-labels highcharts-yaxis-labels " data-z-index="7">
		<text x="57" style="color:#666666;cursor:default;font-size:11px;fill:#666666;" text-anchor="end" transform="translate(0,0)" y="366" opacity="1">0
		</text>
		<text x="57" style="color:#666666;cursor:default;font-size:11px;fill:#666666;" text-anchor="end" transform="translate(0,0)" y="306" opacity="1">50
		</text>
		<text x="57" style="color:#666666;cursor:default;font-size:11px;fill:#666666;" text-anchor="end" transform="translate(0,0)" y="246" opacity="1">100
		</text>
		<text x="57" style="color:#666666;cursor:default;font-size:11px;fill:#666666;" text-anchor="end" transform="translate(0,0)" y="186" opacity="1">150
		</text>
		<text x="57" style="color:#666666;cursor:default;font-size:11px;fill:#666666;" text-anchor="end" transform="translate(0,0)" y="126" opacity="1">200
		</text>
		<text x="57" style="color:#666666;cursor:default;font-size:11px;fill:#666666;" text-anchor="end" transform="translate(0,0)" y="67" opacity="1">250
		</text>
	</g>
	<text x="574" class="highcharts-credits" text-anchor="end" data-z-index="8" style="cursor:pointer;color:#999999;font-size:9px;fill:#999999;" y="395">Highcharts.com
	</text>
</svg>